<?xml version="1.0" standalone="no"?>
<!DOCTYPE svg PUBLIC "-//W3C//DTD SVG 20010904//EN"
 "http://www.w3.org/TR/2001/REC-SVG-20010904/DTD/svg10.dtd">
<svg version="1.0" xmlns="http://www.w3.org/2000/svg"
 width="494.000000pt" height="505.000000pt" viewBox="0 0 494.000000 505.000000"
 preserveAspectRatio="xMidYMid meet">

<g transform="translate(0.000000,505.000000) scale(0.100000,-0.100000)"
fill="#000000" stroke="none">
<path d="M1629 4787 c-121 -41 -194 -108 -257 -234 l-36 -73 -446 0 c-485 0
-511 -2 -614 -58 -121 -65 -224 -212 -246 -352 -14 -89 -14 -2351 0 -2440 30
-189 185 -357 370 -399 28 -7 282 -11 684 -11 l638 0 -6 23 c-7 25 -42 203
-51 259 l-6 38 -604 2 c-595 3 -604 3 -632 24 -15 11 -38 36 -50 54 l-23 33 0
1197 0 1197 22 33 c13 18 36 43 51 54 28 21 38 21 576 24 l549 2 62 139 c34
77 73 150 87 163 l25 23 583 3 583 2 30 -25 c20 -16 51 -72 93 -165 l64 -140
533 0 c427 0 539 -3 565 -14 42 -17 83 -66 97 -114 6 -22 10 -176 10 -383 l0
-346 24 -11 c37 -17 195 -117 249 -158 l48 -37 -3 499 c-3 481 -4 501 -25 556
-55 145 -155 246 -303 305 -40 16 -96 18 -514 23 l-470 5 -34 68 c-50 100
-119 169 -210 214 l-76 38 -635 2 -636 3 -66 -23z"/>
<path d="M680 3670 l0 -160 160 0 160 0 0 160 0 160 -160 0 -160 0 0 -160z"/>
<path d="M2220 3825 c-8 -2 -49 -9 -90 -15 -262 -43 -518 -222 -662 -465 -229
-386 -161 -874 166 -1194 30 -30 57 -53 59 -50 2 2 18 52 35 111 18 59 43 132
56 162 l25 55 -44 65 c-75 112 -107 222 -107 361 0 329 239 598 574 645 152
22 356 -33 465 -124 l30 -25 69 29 c38 16 113 41 167 56 53 15 97 31 97 35 0
4 -40 44 -88 90 -176 168 -384 255 -627 264 -60 2 -117 2 -125 0z"/>
<path d="M3265 3163 c-16 -2 -64 -11 -105 -19 -289 -62 -530 -192 -741 -403
-210 -211 -338 -445 -404 -741 -22 -101 -31 -383 -15 -492 90 -619 543 -1104
1155 -1239 119 -26 351 -36 481 -19 617 77 1121 536 1255 1142 74 335 28 678
-132 988 -76 147 -161 260 -285 380 -214 206 -489 347 -773 394 -87 15 -349
20 -436 9z m478 -347 c182 -47 363 -148 503 -279 143 -133 267 -343 321 -543
25 -91 27 -114 27 -289 0 -176 -2 -197 -28 -290 -172 -628 -813 -989 -1435
-808 -551 159 -904 725 -806 1289 83 476 431 833 910 934 133 29 372 22 508
-14z"/>
<path d="M3290 2195 l0 -325 -325 0 -325 0 0 -158 0 -159 148 -5 c81 -3 227
-4 324 -3 l178 2 2 -326 3 -326 163 -3 162 -2 0 324 0 324 53 5 c28 3 126 4
217 2 91 -1 213 0 273 3 l107 5 0 158 0 159 -325 0 -325 0 0 325 0 325 -165 0
-165 0 0 -325z"/>
</g>
</svg>
